<?xml version="1.0" encoding="utf-8" standalone="no"?>
<!DOCTYPE svg PUBLIC "-//W3C//DTD SVG 1.1//EN"
  "http://www.w3.org/Graphics/SVG/1.1/DTD/svg11.dtd">
<svg xmlns:xlink="http://www.w3.org/1999/xlink" width="280.8pt" height="100.8pt" viewBox="0 0 280.8 100.8" xmlns="http://www.w3.org/2000/svg" version="1.1">
 <metadata>
  <rdf:RDF xmlns:dc="http://purl.org/dc/elements/1.1/" xmlns:cc="http://creativecommons.org/ns#" xmlns:rdf="http://www.w3.org/1999/02/22-rdf-syntax-ns#">
   <cc:Work>
    <dc:type rdf:resource="http://purl.org/dc/dcmitype/StillImage"/>
    <dc:date>2024-08-28T11:34:04.291229</dc:date>
    <dc:format>image/svg+xml</dc:format>
    <dc:creator>
     <cc:Agent>
      <dc:title>Matplotlib v3.8.3, https://matplotlib.org/</dc:title>
     </cc:Agent>
    </dc:creator>
   </cc:Work>
  </rdf:RDF>
 </metadata>
 <defs>
  <style type="text/css">*{stroke-linejoin: round; stroke-linecap: butt}</style>
 </defs>
 <g id="figure_1">
  <g id="patch_1">
   <path d="M 0 100.8 
L 280.8 100.8 
L 280.8 0 
L 0 0 
z
" style="fill: #ffffff"/>
  </g>
  <g id="axes_1">
   <g id="patch_2">
    <path d="M 7.2 93.6 
L 273.6 93.6 
L 273.6 7.2 
L 7.2 7.2 
z
" style="fill: #ffffff"/>
   </g>
   <g id="line2d_1">
    <path d="M 7.2 11.127273 
L 7.466667 11.190176 
L 8 11.692193 
L 8.533333 12.689801 
L 9.066667 14.170226 
L 9.866667 17.253053 
L 10.666667 21.289494 
L 11.733333 27.950566 
L 13.066667 37.842855 
L 17.866667 75.503892 
L 18.933333 81.643795 
L 19.733333 85.216299 
L 20.533333 87.787238 
L 21.066667 88.906992 
L 21.6 89.533759 
L 21.866667 89.659515 
L 22.133333 89.659515 
L 22.4 89.533759 
L 22.933333 88.906992 
L 23.466667 87.787238 
L 24 86.188833 
L 24.8 82.940134 
L 25.6 78.755352 
L 26.666667 71.931045 
L 28 61.901576 
L 32.533333 26.163427 
L 33.6 19.844693 
L 34.4 16.114515 
L 35.2 13.370703 
L 35.733333 12.129699 
L 36.266667 11.378684 
L 36.8 11.127273 
L 37.066667 11.190176 
L 37.6 11.692193 
L 38.133333 12.689801 
L 38.666667 14.170226 
L 39.466667 17.253053 
L 40.266667 21.289494 
L 41.333333 27.950566 
L 42.666667 37.842855 
L 47.466667 75.503892 
L 48.533333 81.643795 
L 49.333333 85.216299 
L 50.133333 87.787238 
L 50.666667 88.906992 
L 51.2 89.533759 
L 51.466667 89.659515 
L 51.733333 89.659515 
L 52 89.533759 
L 52.533333 88.906992 
L 53.066667 87.787238 
L 53.6 86.188833 
L 54.4 82.940134 
L 55.2 78.755352 
L 56.266667 71.931045 
L 57.6 61.901576 
L 62.133333 26.163427 
L 63.2 19.844693 
L 64 16.114515 
L 64.8 13.370703 
L 65.333333 12.129699 
L 65.866667 11.378684 
L 66.4 11.127273 
L 66.666667 11.190176 
L 67.2 11.692193 
L 67.733333 12.689801 
L 68.266667 14.170226 
L 69.066667 17.253053 
L 69.866667 21.289494 
L 70.933333 27.950566 
L 72.266667 37.842855 
L 77.066667 75.503892 
L 78.133333 81.643795 
L 78.933333 85.216299 
L 79.733333 87.787238 
L 80.266667 88.906992 
L 80.8 89.533759 
L 81.066667 89.659515 
L 81.333333 89.659515 
L 81.6 89.533759 
L 82.133333 88.906992 
L 82.666667 87.787238 
L 83.2 86.188833 
L 84 82.940134 
L 84.8 78.755352 
L 85.866667 71.931045 
L 87.2 61.901576 
L 91.733333 26.163427 
L 92.8 19.844693 
L 93.6 16.114515 
L 94.4 13.370703 
L 94.933333 12.129699 
L 95.466667 11.378684 
L 96 11.127273 
L 96.266667 11.190176 
L 96.8 11.692193 
L 97.333333 12.689801 
L 97.866667 14.170226 
L 98.666667 17.253053 
L 99.466667 21.289494 
L 100.533333 27.950566 
L 101.866667 37.842855 
L 106.666667 75.503892 
L 107.733333 81.643795 
L 108.533333 85.216299 
L 109.333333 87.787238 
L 109.866667 88.906992 
L 110.4 89.533759 
L 110.666667 89.659515 
L 110.933333 89.659515 
L 111.2 89.533759 
L 111.733333 88.906992 
L 112.266667 87.787238 
L 112.8 86.188833 
L 113.6 82.940134 
L 114.4 78.755352 
L 115.466667 71.931045 
L 116.8 61.901576 
L 121.333333 26.163427 
L 122.4 19.844693 
L 123.2 16.114515 
L 124 13.370703 
L 124.533333 12.129699 
L 125.066667 11.378684 
L 125.6 11.127273 
L 125.866667 11.190176 
L 126.4 11.692193 
L 126.933333 12.689801 
L 127.466667 14.170226 
L 128.266667 17.253053 
L 129.066667 21.289494 
L 130.133333 27.950566 
L 131.466667 37.842855 
L 136.266667 75.503892 
L 137.333333 81.643795 
L 138.133333 85.216299 
L 138.933333 87.787238 
L 139.466667 88.906992 
L 140 89.533759 
L 140.266667 89.659515 
L 140.533333 89.659515 
L 140.8 89.533759 
L 141.333333 88.906992 
L 141.866667 87.787238 
L 142.4 86.188833 
L 143.2 82.940134 
L 144 78.755352 
L 145.066667 71.931045 
L 146.4 61.901576 
L 150.933333 26.163427 
L 152 19.844693 
L 152.8 16.114515 
L 153.6 13.370703 
L 154.133333 12.129699 
L 154.666667 11.378684 
L 155.2 11.127273 
L 155.466667 11.190176 
L 156 11.692193 
L 156.533333 12.689801 
L 157.066667 14.170226 
L 157.866667 17.253053 
L 158.666667 21.289494 
L 159.733333 27.950566 
L 161.066667 37.842855 
L 165.866667 75.503892 
L 166.933333 81.643795 
L 167.733333 85.216299 
L 168.533333 87.787238 
L 169.066667 88.906992 
L 169.6 89.533759 
L 169.866667 89.659515 
L 170.133333 89.659515 
L 170.4 89.533759 
L 170.933333 88.906992 
L 171.466667 87.787238 
L 172 86.188833 
L 172.8 82.940134 
L 173.6 78.755352 
L 174.666667 71.931045 
L 176 61.901576 
L 180.533333 26.163427 
L 181.6 19.844693 
L 182.4 16.114515 
L 183.2 13.370703 
L 183.733333 12.129699 
L 184.266667 11.378684 
L 184.8 11.127273 
L 185.066667 11.190176 
L 185.6 11.692193 
L 186.133333 12.689801 
L 186.666667 14.170226 
L 187.466667 17.253053 
L 188.266667 21.289494 
L 189.333333 27.950566 
L 190.666667 37.842855 
L 195.466667 75.503892 
L 196.533333 81.643795 
L 197.333333 85.216299 
L 198.133333 87.787238 
L 198.666667 88.906992 
L 199.2 89.533759 
L 199.466667 89.659515 
L 199.733333 89.659515 
L 200 89.533759 
L 200.533333 88.906992 
L 201.066667 87.787238 
L 201.6 86.188833 
L 202.4 82.940134 
L 203.2 78.755352 
L 204.266667 71.931045 
L 205.6 61.901576 
L 210.133333 26.163427 
L 211.2 19.844693 
L 212 16.114515 
L 212.8 13.370703 
L 213.333333 12.129699 
L 213.866667 11.378684 
L 214.4 11.127273 
L 214.666667 11.190176 
L 215.2 11.692193 
L 215.733333 12.689801 
L 216.266667 14.170226 
L 217.066667 17.253053 
L 217.866667 21.289494 
L 218.933333 27.950566 
L 220.266667 37.842855 
L 225.066667 75.503892 
L 226.133333 81.643795 
L 226.933333 85.216299 
L 227.733333 87.787238 
L 228.266667 88.906992 
L 228.8 89.533759 
L 229.066667 89.659515 
L 229.333333 89.659515 
L 229.6 89.533759 
L 230.133333 88.906992 
L 230.666667 87.787238 
L 231.2 86.188833 
L 232 82.940134 
L 232.8 78.755352 
L 233.866667 71.931045 
L 235.2 61.901576 
L 239.733333 26.163427 
L 240.8 19.844693 
L 241.6 16.114515 
L 242.4 13.370703 
L 242.933333 12.129699 
L 243.466667 11.378684 
L 244 11.127273 
L 244.266667 11.190176 
L 244.8 11.692193 
L 245.333333 12.689801 
L 245.866667 14.170226 
L 246.666667 17.253053 
L 247.466667 21.289494 
L 248.533333 27.950566 
L 249.866667 37.842855 
L 254.666667 75.503892 
L 255.733333 81.643795 
L 256.533333 85.216299 
L 257.333333 87.787238 
L 257.866667 88.906992 
L 258.4 89.533759 
L 258.666667 89.659515 
L 258.933333 89.659515 
L 259.2 89.533759 
L 259.733333 88.906992 
L 260.266667 87.787238 
L 260.8 86.188833 
L 261.6 82.940134 
L 262.4 78.755352 
L 263.466667 71.931045 
L 264.8 61.901576 
L 269.333333 26.163427 
L 270.4 19.844693 
L 271.2 16.114515 
L 272 13.370703 
L 272.533333 12.129699 
L 273.066667 11.378684 
L 273.6 11.127273 
L 273.6 11.127273 
" clip-path="url(#p9bfe7cf494)" style="fill: none; stroke: #1f77b4; stroke-width: 1.5; stroke-linecap: square"/>
   </g>
   <g id="line2d_2">
    <path d="M 7.2 62.537587 
L 8.8 74.287694 
L 9.866667 80.67655 
L 10.666667 84.468969 
L 11.466667 87.281322 
L 12 88.570553 
L 12.533333 89.371105 
L 13.066667 89.672727 
L 13.333333 89.634982 
L 13.866667 89.182983 
L 14.4 88.234464 
L 14.933333 86.801568 
L 15.733333 83.785788 
L 16.533333 79.809596 
L 17.6 73.215318 
L 18.933333 63.380127 
L 24 23.957045 
L 25.066667 18.11344 
L 25.866667 14.799114 
L 26.666667 12.508997 
L 27.2 11.585067 
L 27.733333 11.158099 
L 28 11.132935 
L 28.266667 11.23356 
L 28.8 11.810482 
L 29.333333 12.881479 
L 29.866667 14.43284 
L 30.666667 17.615495 
L 31.466667 21.741337 
L 32.533333 28.500998 
L 33.866667 38.476553 
L 38.4 74.287694 
L 39.466667 80.67655 
L 40.266667 84.468969 
L 41.066667 87.281322 
L 41.6 88.570553 
L 42.133333 89.371105 
L 42.666667 89.672727 
L 42.933333 89.634982 
L 43.466667 89.182983 
L 44 88.234464 
L 44.533333 86.801568 
L 45.333333 83.785788 
L 46.133333 79.809596 
L 47.2 73.215318 
L 48.533333 63.380127 
L 53.6 23.957045 
L 54.666667 18.11344 
L 55.466667 14.799114 
L 56.266667 12.508997 
L 56.8 11.585067 
L 57.333333 11.158099 
L 57.6 11.132935 
L 57.866667 11.23356 
L 58.4 11.810482 
L 58.933333 12.881479 
L 59.466667 14.43284 
L 60.266667 17.615495 
L 61.066667 21.741337 
L 62.133333 28.500998 
L 63.466667 38.476553 
L 68 74.287694 
L 69.066667 80.67655 
L 69.866667 84.468969 
L 70.666667 87.281322 
L 71.2 88.570553 
L 71.733333 89.371105 
L 72.266667 89.672727 
L 72.533333 89.634982 
L 73.066667 89.182983 
L 73.6 88.234464 
L 74.133333 86.801568 
L 74.933333 83.785788 
L 75.733333 79.809596 
L 76.8 73.215318 
L 78.133333 63.380127 
L 83.2 23.957045 
L 84.266667 18.11344 
L 85.066667 14.799114 
L 85.866667 12.508997 
L 86.4 11.585067 
L 86.933333 11.158099 
L 87.2 11.132935 
L 87.466667 11.23356 
L 88 11.810482 
L 88.533333 12.881479 
L 89.066667 14.43284 
L 89.866667 17.615495 
L 90.666667 21.741337 
L 91.733333 28.500998 
L 93.066667 38.476553 
L 97.6 74.287694 
L 98.666667 80.67655 
L 99.466667 84.468969 
L 100.266667 87.281322 
L 100.8 88.570553 
L 101.333333 89.371105 
L 101.866667 89.672727 
L 102.133333 89.634982 
L 102.666667 89.182983 
L 103.2 88.234464 
L 103.733333 86.801568 
L 104.533333 83.785788 
L 105.333333 79.809596 
L 106.4 73.215318 
L 107.733333 63.380127 
L 112.8 23.957045 
L 113.866667 18.11344 
L 114.666667 14.799114 
L 115.466667 12.508997 
L 116 11.585067 
L 116.533333 11.158099 
L 116.8 11.132935 
L 117.066667 11.23356 
L 117.6 11.810482 
L 118.133333 12.881479 
L 118.666667 14.43284 
L 119.466667 17.615495 
L 120.266667 21.741337 
L 121.333333 28.500998 
L 122.666667 38.476553 
L 127.2 74.287694 
L 128.266667 80.67655 
L 129.066667 84.468969 
L 129.866667 87.281322 
L 130.4 88.570553 
L 130.933333 89.371105 
L 131.466667 89.672727 
L 131.733333 89.634982 
L 132.266667 89.182983 
L 132.8 88.234464 
L 133.333333 86.801568 
L 134.133333 83.785788 
L 134.933333 79.809596 
L 136 73.215318 
L 137.333333 63.380127 
L 142.4 23.957045 
L 143.466667 18.11344 
L 144.266667 14.799114 
L 145.066667 12.508997 
L 145.6 11.585067 
L 146.133333 11.158099 
L 146.4 11.132935 
L 146.666667 11.23356 
L 147.2 11.810482 
L 147.733333 12.881479 
L 148.266667 14.43284 
L 149.066667 17.615495 
L 149.866667 21.741337 
L 150.933333 28.500998 
L 152.266667 38.476553 
L 156.8 74.287694 
L 157.866667 80.67655 
L 158.666667 84.468969 
L 159.466667 87.281322 
L 160 88.570553 
L 160.533333 89.371105 
L 161.066667 89.672727 
L 161.333333 89.634982 
L 161.866667 89.182983 
L 162.4 88.234464 
L 162.933333 86.801568 
L 163.733333 83.785788 
L 164.533333 79.809596 
L 165.6 73.215318 
L 166.933333 63.380127 
L 172 23.957045 
L 173.066667 18.11344 
L 173.866667 14.799114 
L 174.666667 12.508997 
L 175.2 11.585067 
L 175.733333 11.158099 
L 176 11.132935 
L 176.266667 11.23356 
L 176.8 11.810482 
L 177.333333 12.881479 
L 177.866667 14.43284 
L 178.666667 17.615495 
L 179.466667 21.741337 
L 180.533333 28.500998 
L 181.866667 38.476553 
L 186.4 74.287694 
L 187.466667 80.67655 
L 188.266667 84.468969 
L 189.066667 87.281322 
L 189.6 88.570553 
L 190.133333 89.371105 
L 190.666667 89.672727 
L 190.933333 89.634982 
L 191.466667 89.182983 
L 192 88.234464 
L 192.533333 86.801568 
L 193.333333 83.785788 
L 194.133333 79.809596 
L 195.2 73.215318 
L 196.533333 63.380127 
L 201.6 23.957045 
L 202.666667 18.11344 
L 203.466667 14.799114 
L 204.266667 12.508997 
L 204.8 11.585067 
L 205.333333 11.158099 
L 205.6 11.132935 
L 205.866667 11.23356 
L 206.4 11.810482 
L 206.933333 12.881479 
L 207.466667 14.43284 
L 208.266667 17.615495 
L 209.066667 21.741337 
L 210.133333 28.500998 
L 211.466667 38.476553 
L 216 74.287694 
L 217.066667 80.67655 
L 217.866667 84.468969 
L 218.666667 87.281322 
L 219.2 88.570553 
L 219.733333 89.371105 
L 220.266667 89.672727 
L 220.533333 89.634982 
L 221.066667 89.182983 
L 221.6 88.234464 
L 222.133333 86.801568 
L 222.933333 83.785788 
L 223.733333 79.809596 
L 224.8 73.215318 
L 226.133333 63.380127 
L 231.2 23.957045 
L 232.266667 18.11344 
L 233.066667 14.799114 
L 233.866667 12.508997 
L 234.4 11.585067 
L 234.933333 11.158099 
L 235.2 11.132935 
L 235.466667 11.23356 
L 236 11.810482 
L 236.533333 12.881479 
L 237.066667 14.43284 
L 237.866667 17.615495 
L 238.666667 21.741337 
L 239.733333 28.500998 
L 241.066667 38.476553 
L 245.6 74.287694 
L 246.666667 80.67655 
L 247.466667 84.468969 
L 248.266667 87.281322 
L 248.8 88.570553 
L 249.333333 89.371105 
L 249.866667 89.672727 
L 250.133333 89.634982 
L 250.666667 89.182983 
L 251.2 88.234464 
L 251.733333 86.801568 
L 252.533333 83.785788 
L 253.333333 79.809596 
L 254.4 73.215318 
L 255.733333 63.380127 
L 260.8 23.957045 
L 261.866667 18.11344 
L 262.666667 14.799114 
L 263.466667 12.508997 
L 264 11.585067 
L 264.533333 11.158099 
L 264.8 11.132935 
L 265.066667 11.23356 
L 265.6 11.810482 
L 266.133333 12.881479 
L 266.666667 14.43284 
L 267.466667 17.615495 
L 268.266667 21.741337 
L 269.333333 28.500998 
L 270.666667 38.476553 
L 273.6 62.537587 
L 273.6 62.537587 
" clip-path="url(#p9bfe7cf494)" style="fill: none; stroke: #ff7f0e; stroke-width: 1.5; stroke-linecap: square"/>
   </g>
   <g id="patch_3">
    <path d="M 7.2 93.6 
L 7.2 7.2 
" style="fill: none; stroke: #000000; stroke-width: 0.8; stroke-linejoin: miter; stroke-linecap: square"/>
   </g>
   <g id="patch_4">
    <path d="M 273.6 93.6 
L 273.6 7.2 
" style="fill: none; stroke: #000000; stroke-width: 0.8; stroke-linejoin: miter; stroke-linecap: square"/>
   </g>
   <g id="patch_5">
    <path d="M 7.2 93.6 
L 273.6 93.6 
" style="fill: none; stroke: #000000; stroke-width: 0.8; stroke-linejoin: miter; stroke-linecap: square"/>
   </g>
   <g id="patch_6">
    <path d="M 7.2 7.2 
L 273.6 7.2 
" style="fill: none; stroke: #000000; stroke-width: 0.8; stroke-linejoin: miter; stroke-linecap: square"/>
   </g>
  </g>
 </g>
 <defs>
  <clipPath id="p9bfe7cf494">
   <rect x="7.2" y="7.2" width="266.4" height="86.4"/>
  </clipPath>
 </defs>
</svg>
