<?xml version="1.0" encoding="utf-8" standalone="no"?>
<!DOCTYPE svg PUBLIC "-//W3C//DTD SVG 1.1//EN"
  "http://www.w3.org/Graphics/SVG/1.1/DTD/svg11.dtd">
<svg xmlns:xlink="http://www.w3.org/1999/xlink" width="280.8pt" height="100.8pt" viewBox="0 0 280.8 100.8" xmlns="http://www.w3.org/2000/svg" version="1.1">
 <metadata>
  <rdf:RDF xmlns:dc="http://purl.org/dc/elements/1.1/" xmlns:cc="http://creativecommons.org/ns#" xmlns:rdf="http://www.w3.org/1999/02/22-rdf-syntax-ns#">
   <cc:Work>
    <dc:type rdf:resource="http://purl.org/dc/dcmitype/StillImage"/>
    <dc:date>2024-08-28T11:28:48.459236</dc:date>
    <dc:format>image/svg+xml</dc:format>
    <dc:creator>
     <cc:Agent>
      <dc:title>Matplotlib v3.8.3, https://matplotlib.org/</dc:title>
     </cc:Agent>
    </dc:creator>
   </cc:Work>
  </rdf:RDF>
 </metadata>
 <defs>
  <style type="text/css">*{stroke-linejoin: round; stroke-linecap: butt}</style>
 </defs>
 <g id="figure_1">
  <g id="patch_1">
   <path d="M 0 100.8 
L 280.8 100.8 
L 280.8 0 
L 0 0 
z
" style="fill: #ffffff"/>
  </g>
  <g id="axes_1">
   <g id="patch_2">
    <path d="M 7.2 93.6 
L 273.6 93.6 
L 273.6 7.2 
L 7.2 7.2 
z
" style="fill: #ffffff"/>
   </g>
   <g id="line2d_1">
    <path d="M 7.2 50.402383 
L 8.533333 50.295873 
L 12.8 49.68387 
L 13.6 49.874737 
L 14.4 50.26861 
L 15.2 50.893544 
L 16 51.762953 
L 17.066667 53.292844 
L 18.4 55.702023 
L 21.866667 62.407559 
L 22.666667 63.457684 
L 23.466667 64.102544 
L 24 64.26068 
L 24.533333 64.172965 
L 25.066667 63.819295 
L 25.6 63.184119 
L 26.133333 62.257049 
L 26.933333 60.310476 
L 27.733333 57.707905 
L 28.8 53.295192 
L 30.133333 46.548478 
L 34.666667 22.142702 
L 35.466667 19.232322 
L 36.266667 17.169171 
L 36.8 16.326733 
L 37.333333 15.944784 
L 37.6 15.933326 
L 37.866667 16.044199 
L 38.4 16.637787 
L 38.933333 17.729876 
L 39.466667 19.316057 
L 40.266667 22.590428 
L 41.066667 26.863552 
L 42.133333 33.897038 
L 43.466667 44.267557 
L 47.2 74.435074 
L 48.266667 81.058354 
L 49.066667 84.919655 
L 49.866667 87.68823 
L 50.4 88.883355 
L 50.933333 89.540604 
L 51.2 89.66575 
L 51.466667 89.655461 
L 51.733333 89.510622 
L 52.266667 88.823673 
L 52.8 87.623203 
L 53.333333 85.936033 
L 54.133333 82.570715 
L 55.2 76.762271 
L 56.533333 67.988881 
L 60.266667 42.272479 
L 61.333333 36.563708 
L 62.133333 33.147901 
L 62.933333 30.559087 
L 63.733333 28.832636 
L 64.266667 28.16116 
L 64.8 27.863153 
L 65.333333 27.922485 
L 65.866667 28.317026 
L 66.4 29.019343 
L 67.2 30.578962 
L 68.266667 33.409176 
L 69.866667 38.609702 
L 72.266667 46.475068 
L 73.333333 49.338965 
L 74.4 51.582384 
L 75.2 52.81607 
L 76 53.663173 
L 76.8 54.145176 
L 77.6 54.301435 
L 78.4 54.185043 
L 79.466667 53.713828 
L 81.066667 52.64702 
L 82.933333 51.414593 
L 84.266667 50.805163 
L 85.6 50.488079 
L 87.2 50.402383 
L 141.6 50.489347 
L 143.733333 50.926703 
L 145.333333 51.15287 
L 146.4 51.048606 
L 147.2 50.760527 
L 148 50.25379 
L 148.8 49.507262 
L 149.866667 48.132857 
L 150.933333 46.364988 
L 152.533333 43.2133 
L 154.666667 39.042285 
L 155.733333 37.496653 
L 156.533333 36.777436 
L 157.066667 36.561448 
L 157.6 36.585651 
L 158.133333 36.871186 
L 158.666667 37.434801 
L 159.2 38.288225 
L 160 40.123642 
L 160.8 42.618933 
L 161.866667 46.904048 
L 163.2 53.533581 
L 165.6 67.212876 
L 167.2 75.697947 
L 168.266667 80.214276 
L 169.066667 82.718371 
L 169.6 83.887946 
L 170.133333 84.61764 
L 170.666667 84.880898 
L 170.933333 84.831391 
L 171.466667 84.362089 
L 172 83.394557 
L 172.533333 81.931003 
L 173.333333 78.832149 
L 174.133333 74.71804 
L 175.2 67.859467 
L 176.533333 57.629715 
L 180.533333 25.460861 
L 181.6 19.031869 
L 182.4 15.344972 
L 183.2 12.767926 
L 183.733333 11.706338 
L 184.266667 11.184627 
L 184.533333 11.127273 
L 184.8 11.204983 
L 185.333333 11.760349 
L 185.866667 12.834629 
L 186.4 14.403084 
L 187.2 17.608484 
L 188.266667 23.246006 
L 189.6 31.886722 
L 193.6 59.31062 
L 194.666667 64.865142 
L 195.466667 68.147192 
L 196.266667 70.593706 
L 196.8 71.744635 
L 197.333333 72.51124 
L 197.866667 72.90135 
L 198.4 72.929501 
L 198.933333 72.616384 
L 199.466667 71.988178 
L 200.266667 70.523766 
L 201.066667 68.540598 
L 202.4 64.445259 
L 205.866667 53.190335 
L 206.933333 50.546664 
L 208 48.55667 
L 208.8 47.517702 
L 209.6 46.85704 
L 210.4 46.543792 
L 211.2 46.531175 
L 212 46.760962 
L 213.066667 47.332046 
L 217.066667 49.847519 
L 218.4 50.25057 
L 219.733333 50.393255 
L 224.266667 50.402383 
L 273.6 50.402383 
L 273.6 50.402383 
" clip-path="url(#p28d355530a)" style="fill: none; stroke: #1f77b4; stroke-width: 1.5; stroke-linecap: square"/>
   </g>
   <g id="line2d_2">
    <path d="M 7.2 50.402383 
L 8.8 50.499491 
L 10.133333 50.833407 
L 11.466667 51.460007 
L 13.066667 52.513856 
L 14.933333 53.758657 
L 16 54.207229 
L 16.8 54.299041 
L 17.6 54.112406 
L 18.4 53.5954 
L 19.2 52.710278 
L 20 51.437545 
L 20.8 49.779171 
L 21.866667 47.015814 
L 23.2 42.867386 
L 26.4 32.411626 
L 27.466667 29.834538 
L 28.266667 28.529376 
L 28.8 28.023744 
L 29.333333 27.844284 
L 29.866667 28.015067 
L 30.4 28.554395 
L 30.933333 29.474181 
L 31.466667 30.779447 
L 32.266667 33.453182 
L 33.066667 36.948274 
L 34.133333 42.747548 
L 35.466667 51.412842 
L 39.466667 78.794496 
L 40.533333 84.145019 
L 41.333333 87.086438 
L 41.866667 88.460723 
L 42.4 89.329933 
L 42.933333 89.672727 
L 43.2 89.642452 
L 43.466667 89.476589 
L 44 88.738143 
L 44.533333 87.4633 
L 45.066667 85.667217 
L 45.866667 82.051029 
L 46.666667 77.43586 
L 47.733333 70.003207 
L 49.333333 57.071056 
L 52 35.259969 
L 53.066667 27.99198 
L 54.133333 22.216371 
L 54.933333 19.047052 
L 55.466667 17.534357 
L 56 16.516977 
L 56.533333 15.998002 
L 56.8 15.923994 
L 57.066667 15.971811 
L 57.6 16.424354 
L 58.133333 17.333594 
L 58.666667 18.670099 
L 59.466667 21.39541 
L 60.533333 26.141622 
L 61.866667 33.288792 
L 65.066667 51.133497 
L 66.133333 55.956642 
L 67.2 59.760862 
L 68 61.862563 
L 68.8 63.297812 
L 69.333333 63.889967 
L 69.866667 64.202634 
L 70.4 64.252087 
L 70.933333 64.059056 
L 71.466667 63.64803 
L 72.266667 62.683517 
L 73.333333 60.907341 
L 75.2 57.152279 
L 76.8 54.058704 
L 77.866667 52.363401 
L 78.933333 51.074387 
L 79.733333 50.393007 
L 80.533333 49.947243 
L 81.333333 49.712165 
L 82.4 49.661452 
L 83.733333 49.866525 
L 86.4 50.370394 
L 88.266667 50.402383 
L 141.866667 50.323815 
L 143.2 50.01783 
L 144.266667 49.562458 
L 145.6 48.756494 
L 148.533333 46.842584 
L 149.333333 46.565423 
L 150.133333 46.515948 
L 150.933333 46.754367 
L 151.733333 47.330551 
L 152.533333 48.279467 
L 153.333333 49.617227 
L 154.4 51.992364 
L 155.466667 54.96583 
L 157.066667 60.186613 
L 159.466667 68.017243 
L 160.533333 70.69565 
L 161.333333 72.101329 
L 161.866667 72.684136 
L 162.4 72.947605 
L 162.933333 72.866336 
L 163.466667 72.42052 
L 164 71.596596 
L 164.533333 70.387779 
L 165.333333 67.855776 
L 166.133333 64.493237 
L 167.2 58.845663 
L 168.533333 50.310987 
L 172.8 21.263457 
L 173.866667 16.100504 
L 174.666667 13.328892 
L 175.2 12.078409 
L 175.733333 11.33914 
L 176 11.167547 
L 176.266667 11.130259 
L 176.533333 11.228275 
L 177.066667 11.831335 
L 177.6 12.97314 
L 178.133333 14.640833 
L 178.933333 18.077985 
L 179.733333 22.536528 
L 180.8 29.80555 
L 182.4 42.609995 
L 185.333333 66.521868 
L 186.4 73.62361 
L 187.466667 79.189281 
L 188.266667 82.181824 
L 188.8 83.571461 
L 189.333333 84.464186 
L 189.866667 84.859103 
L 190.133333 84.871978 
L 190.666667 84.537356 
L 191.2 83.739808 
L 191.733333 82.506982 
L 192.533333 79.918747 
L 193.333333 76.571115 
L 194.666667 69.757332 
L 198.933333 46.547714 
L 200 42.340503 
L 200.8 39.910081 
L 201.6 38.141428 
L 202.133333 37.332009 
L 202.666667 36.810984 
L 203.2 36.565831 
L 203.733333 36.579102 
L 204.266667 36.829059 
L 204.8 37.290387 
L 205.6 38.316622 
L 206.666667 40.147768 
L 210.933333 48.250445 
L 212 49.592986 
L 212.8 50.315023 
L 213.6 50.798702 
L 214.4 51.066608 
L 215.466667 51.150288 
L 216.8 50.96643 
L 219.733333 50.423707 
L 221.866667 50.402383 
L 273.6 50.402383 
L 273.6 50.402383 
" clip-path="url(#p28d355530a)" style="fill: none; stroke: #ff7f0e; stroke-width: 1.5; stroke-linecap: square"/>
   </g>
   <g id="patch_3">
    <path d="M 7.2 93.6 
L 7.2 7.2 
" style="fill: none; stroke: #000000; stroke-width: 0.8; stroke-linejoin: miter; stroke-linecap: square"/>
   </g>
   <g id="patch_4">
    <path d="M 273.6 93.6 
L 273.6 7.2 
" style="fill: none; stroke: #000000; stroke-width: 0.8; stroke-linejoin: miter; stroke-linecap: square"/>
   </g>
   <g id="patch_5">
    <path d="M 7.2 93.6 
L 273.6 93.6 
" style="fill: none; stroke: #000000; stroke-width: 0.8; stroke-linejoin: miter; stroke-linecap: square"/>
   </g>
   <g id="patch_6">
    <path d="M 7.2 7.2 
L 273.6 7.2 
" style="fill: none; stroke: #000000; stroke-width: 0.8; stroke-linejoin: miter; stroke-linecap: square"/>
   </g>
  </g>
 </g>
 <defs>
  <clipPath id="p28d355530a">
   <rect x="7.2" y="7.2" width="266.4" height="86.4"/>
  </clipPath>
 </defs>
</svg>
