<svg width="80" height="80" viewBox="0 0 80 80" fill="none" xmlns="http://www.w3.org/2000/svg">
  <path d="M40 12L43.135 12.1761L46.2306 12.702L49.2478 13.5713L52.1487 14.7729L54.8969 16.2917L57.4577 18.1087L59.799 20.201L61.8913 22.5423L63.7083 25.1031L65.2271 27.8513L66.4287 30.7522L67.298 33.7694L67.8239 36.865L68 40L67.8239 43.135L67.298 46.2306L66.4287 49.2478L65.2271 52.1487L63.7083 54.8969L61.8913 57.4577L59.799 59.799L57.4577 61.8913L54.8969 63.7083L52.1487 65.2271L49.2478 66.4287L46.2306 67.298L43.135 67.8239L40 68L36.865 67.8239L33.7694 67.298L30.7522 66.4287L27.8513 65.2271L25.1031 63.7083L22.5423 61.8913L20.201 59.799L18.1087 57.4577L16.2917 54.8969L14.7729 52.1487L13.5713 49.2478L12.702 46.2306L12.1761 43.135L12 40L12.1761 36.865L12.702 33.7694L13.5713 30.7522L14.7729 27.8513L16.2917 25.1031L18.1087 22.5423L20.201 20.201L22.5423 18.1087L25.1031 16.2917L27.8513 14.7729L30.7522 13.5713L33.7694 12.702L36.865 12.1761L40 12Z" fill="#56CCF2" />
  <path fill-rule="evenodd" clip-rule="evenodd" d="M37.6 30.6666V27.8666C37.6 26.7621 36.7046 25.8666 35.6 25.8666H30C28.8954 25.8666 28 26.7621 28 27.8666V30.6666L28 49.3333V52.1333C28 53.2379 28.8954 54.1333 30 54.1333L35.6 54.1333C36.7046 54.1333 37.6 53.2379 37.6 52.1333V49.3333L37.6 30.6666ZM52 30.6666L52 27.8666C52 26.7621 51.1046 25.8666 50 25.8666H44.4C43.2954 25.8666 42.4 26.7621 42.4 27.8666V30.6666L42.4 49.3333V52.1333C42.4 53.2379 43.2954 54.1333 44.4 54.1333L50 54.1333C51.1046 54.1333 52 53.2379 52 52.1333V49.3333V30.6666Z" fill="#2F80ED" />
</svg>